<?xml version="1.0" encoding="UTF-8" standalone="no"?>
<svg
   width="377.953"
   height="377.953"
   viewBox="0 0 100 100"
   fill="#ffffff"
   version="1.1"
   id="svg88"
   xml:space="preserve"
   xmlns="http://www.w3.org/2000/svg"
   xmlns:svg="http://www.w3.org/2000/svg"><defs
     id="defs92"><filter
       style="color-interpolation-filters:sRGB"
       id="filter479"
       x="-0.3589915"
       y="-0.23981185"
       width="1.717983"
       height="1.4796237"><feGaussianBlur
         stdDeviation="6.666666666666667 3.1111111111111112"
         result="blur"
         id="feGaussianBlur477" /></filter><filter
       style="color-interpolation-filters:sRGB"
       id="filter479-4"
       x="-0.19146213"
       y="-0.37684718"
       width="1.3829243"
       height="1.7536944"><feGaussianBlur
         stdDeviation="3.5555555555555554 4.8888888888888893"
         result="blur"
         id="feGaussianBlur477-1" /></filter><filter
       style="color-interpolation-filters:sRGB"
       id="filter479-9"
       x="-0.29915956"
       y="-0.2912001"
       width="1.5983191"
       height="1.5824002"><feGaussianBlur
         stdDeviation="5.5555555555555554 3.7777777777777777"
         result="blur"
         id="feGaussianBlur477-15" /></filter><filter
       style="color-interpolation-filters:sRGB"
       id="filter479-9-5"
       x="-0.3617875"
       y="-0.27164063"
       width="1.723575"
       height="1.5432812"><feGaussianBlur
         stdDeviation="6.71859 3.52403"
         result="blur"
         id="feGaussianBlur477-15-8" /></filter><filter
       style="color-interpolation-filters:sRGB"
       id="filter479-0"
       x="-0.3589915"
       y="-0.23981185"
       width="1.717983"
       height="1.4796237"><feGaussianBlur
         stdDeviation="6.666666666666667 3.1111111111111112"
         result="blur"
         id="feGaussianBlur477-18" /></filter><filter
       style="color-interpolation-filters:sRGB"
       id="filter479-9-8"
       x="-0.29915956"
       y="-0.2912001"
       width="1.5983191"
       height="1.5824002"><feGaussianBlur
         stdDeviation="5.5555555555555554 3.7777777777777777"
         result="blur"
         id="feGaussianBlur477-15-4" /></filter><filter
       style="color-interpolation-filters:sRGB"
       id="filter479-9-5-7"
       x="-0.3617875"
       y="-0.27164063"
       width="1.723575"
       height="1.5432812"><feGaussianBlur
         stdDeviation="6.71859 3.52403"
         result="blur"
         id="feGaussianBlur477-15-8-5" /></filter><filter
       style="color-interpolation-filters:sRGB"
       id="filter479-4-5"
       x="-0.19146213"
       y="-0.37684718"
       width="1.3829243"
       height="1.7536944"><feGaussianBlur
         stdDeviation="3.5555555555555554 4.8888888888888893"
         result="blur"
         id="feGaussianBlur477-1-5" /></filter></defs><path
     style="fill:#514fa8;fill-opacity:1;stroke-width:0.264583;filter:url(#filter479)"
     id="path362"
     d="m 60.885827,9.2815683 c -0.631253,0.316255 -0.728998,0.369615 -1.476607,0.716816 -2.556952,1.1874887 -5.116805,2.3624977 -7.663278,3.5732107 -2.921953,1.442877 -5.880614,2.813459 -8.792561,4.276492 -0.390493,0.28277 -0.922117,0.376099 -1.279699,0.70649 -0.58153,0.559442 -1.158549,1.120528 -1.765558,1.653118 -1.025855,0.844496 -2.091451,1.639024 -3.117668,2.483197 -0.920935,0.826458 -1.649515,1.836316 -2.350549,2.848696 -0.783642,1.131186 -1.483367,2.316449 -2.172865,3.506341 -0.889182,1.576381 -1.836353,3.124309 -2.935717,4.563466 -0.73751,0.910119 -1.524687,1.79607 -2.484272,2.479801 -0.171851,0.122449 -0.354142,0.229544 -0.531213,0.344315 -0.920556,0.573862 -1.94157,0.914085 -2.974512,1.215799 -0.694159,0.197821 -1.411957,0.294746 -2.129182,0.360392 -0.546904,0.06751 -1.095929,0.113466 -1.645623,0.150272 0,0 3.161867,2.257114 3.161867,2.257114 v 0 c 0.542824,-0.05481 1.085148,-0.114395 1.628274,-0.166137 0.737706,-0.06695 1.471943,-0.17018 2.170055,-0.431127 1.039796,-0.344477 2.067202,-0.72544 2.983924,-1.340551 0.469437,-0.320939 0.637492,-0.415795 1.068861,-0.791947 0.736713,-0.642413 1.364442,-1.403722 1.95356,-2.179456 1.070646,-1.476102 2.040913,-3.021162 2.977212,-4.585406 0.703291,-1.171083 1.454432,-2.313209 2.190891,-3.463571 0.688048,-0.988113 1.43207,-1.9433 2.344186,-2.737417 0.990472,-0.873792 2.021582,-1.697193 3.053578,-2.521184 0.642318,-0.52166 1.284135,-1.0435 1.944162,-1.542491 0.349932,-0.259511 0.703365,-0.514262 1.063796,-0.759163 2.653444,-1.714113 5.457322,-3.190312 8.297672,-4.566918 0.774501,-0.352116 1.54415,-0.715107 2.323501,-1.056348 2.417888,-1.058679 4.88697,-2.014616 7.407762,-2.798795 0,0 -3.249997,-2.1950087 -3.249997,-2.1950087 z"
     transform="matrix(0.77109917,0,0,1.071112,2.0184619,-0.13297305)" /><path
     style="fill:#484697;fill-opacity:1;stroke-width:0.264583;filter:url(#filter479-0)"
     id="path362-7"
     d="m 60.885827,9.2815683 c -0.631253,0.316255 -0.728998,0.369615 -1.476607,0.716816 -2.556952,1.1874887 -5.116805,2.3624977 -7.663278,3.5732107 -2.921953,1.442877 -5.880614,2.813459 -8.792561,4.276492 -0.390493,0.28277 -0.922117,0.376099 -1.279699,0.70649 -0.58153,0.559442 -1.158549,1.120528 -1.765558,1.653118 -1.025855,0.844496 -2.091451,1.639024 -3.117668,2.483197 -0.920935,0.826458 -1.649515,1.836316 -2.350549,2.848696 -0.783642,1.131186 -1.483367,2.316449 -2.172865,3.506341 -0.889182,1.576381 -1.836353,3.124309 -2.935717,4.563466 -0.73751,0.910119 -1.524687,1.79607 -2.484272,2.479801 -0.171851,0.122449 -0.354142,0.229544 -0.531213,0.344315 -0.920556,0.573862 -1.94157,0.914085 -2.974512,1.215799 -0.694159,0.197821 -1.411957,0.294746 -2.129182,0.360392 -0.546904,0.06751 -1.095929,0.113466 -1.645623,0.150272 0,0 3.161867,2.257114 3.161867,2.257114 v 0 c 0.542824,-0.05481 1.085148,-0.114395 1.628274,-0.166137 0.737706,-0.06695 1.471943,-0.17018 2.170055,-0.431127 1.039796,-0.344477 2.067202,-0.72544 2.983924,-1.340551 0.469437,-0.320939 0.637492,-0.415795 1.068861,-0.791947 0.736713,-0.642413 1.364442,-1.403722 1.95356,-2.179456 1.070646,-1.476102 2.040913,-3.021162 2.977212,-4.585406 0.703291,-1.171083 1.454432,-2.313209 2.190891,-3.463571 0.688048,-0.988113 1.43207,-1.9433 2.344186,-2.737417 0.990472,-0.873792 2.021582,-1.697193 3.053578,-2.521184 0.642318,-0.52166 1.284135,-1.0435 1.944162,-1.542491 0.349932,-0.259511 0.703365,-0.514262 1.063796,-0.759163 2.653444,-1.714113 5.457322,-3.190312 8.297672,-4.566918 0.774501,-0.352116 1.54415,-0.715107 2.323501,-1.056348 2.417888,-1.058679 4.88697,-2.014616 7.407762,-2.798795 0,0 -3.249997,-2.1950087 -3.249997,-2.1950087 z"
     transform="matrix(0.8982663,0,0,1.2477563,-1.6405326,-0.87639426)" /><path
     style="fill:#e498c2;fill-opacity:1;stroke-width:0.264583;filter:url(#filter479-9)"
     id="path362-5"
     d="m 80.378373,25.133311 c -0.631253,0.316255 -0.728998,0.369615 -1.476607,0.716816 -2.556952,1.187489 -5.116805,2.362498 -7.663278,3.573211 -2.921953,1.442877 -5.880614,2.813459 -8.792561,4.276492 -0.390493,0.28277 -0.922117,0.376099 -1.279699,0.70649 -0.58153,0.559442 -1.158549,1.120528 -1.765558,1.653118 -1.025855,0.844496 -2.091451,1.639024 -3.117668,2.483197 -0.920935,0.826458 -1.649515,1.836316 -2.350549,2.848696 -0.783642,1.131186 -1.483367,2.316449 -2.172865,3.506341 -0.889182,1.576381 -1.836353,3.124309 -2.935717,4.563466 -0.73751,0.910119 -1.524687,1.79607 -2.484272,2.479801 -0.171851,0.122449 -0.354142,0.229544 -0.531213,0.344315 -0.920556,0.573862 -1.94157,0.914085 -2.974512,1.215799 -0.694159,0.197821 -1.411957,0.294746 -2.129182,0.360392 -0.546904,0.06751 -1.095929,0.113466 -1.645623,0.150272 0,0 3.161867,2.257114 3.161867,2.257114 v 0 c 0.542824,-0.05481 1.085148,-0.114395 1.628274,-0.166137 0.737706,-0.06695 1.471943,-0.17018 2.170055,-0.431127 1.039796,-0.344477 2.067202,-0.72544 2.983924,-1.340551 0.469437,-0.320939 0.637492,-0.415795 1.068861,-0.791947 0.736713,-0.642413 1.364442,-1.403722 1.95356,-2.179456 1.070646,-1.476102 2.040913,-3.021162 2.977212,-4.585406 0.703291,-1.171083 1.454432,-2.313209 2.190891,-3.463571 0.688048,-0.988113 1.43207,-1.9433 2.344186,-2.737417 0.990472,-0.873792 2.021582,-1.697193 3.053578,-2.521184 0.642318,-0.52166 1.284135,-1.0435 1.944162,-1.542491 0.349932,-0.259511 0.703365,-0.514262 1.063796,-0.759163 2.653444,-1.714113 5.457322,-3.190312 8.297672,-4.566918 0.774501,-0.352116 1.54415,-0.715107 2.323501,-1.056348 2.417888,-1.058679 4.88697,-2.014616 7.407762,-2.798795 0,0 -3.249997,-2.195009 -3.249997,-2.195009 z"
     transform="matrix(-0.60658326,0.03268246,-0.05414041,-1.0048406,104.57794,76.901539)" /><path
     style="fill:#e498c2;fill-opacity:1;stroke-width:0.264583;filter:url(#filter479-9-8)"
     id="path362-5-0"
     d="m 80.378373,25.133311 c -0.631253,0.316255 -0.728998,0.369615 -1.476607,0.716816 -2.556952,1.187489 -5.116805,2.362498 -7.663278,3.573211 -2.921953,1.442877 -5.880614,2.813459 -8.792561,4.276492 -0.390493,0.28277 -0.922117,0.376099 -1.279699,0.70649 -0.58153,0.559442 -1.158549,1.120528 -1.765558,1.653118 -1.025855,0.844496 -2.091451,1.639024 -3.117668,2.483197 -0.920935,0.826458 -1.649515,1.836316 -2.350549,2.848696 -0.783642,1.131186 -1.483367,2.316449 -2.172865,3.506341 -0.889182,1.576381 -1.836353,3.124309 -2.935717,4.563466 -0.73751,0.910119 -1.524687,1.79607 -2.484272,2.479801 -0.171851,0.122449 -0.354142,0.229544 -0.531213,0.344315 -0.920556,0.573862 -1.94157,0.914085 -2.974512,1.215799 -0.694159,0.197821 -1.411957,0.294746 -2.129182,0.360392 -0.546904,0.06751 -1.095929,0.113466 -1.645623,0.150272 0,0 3.161867,2.257114 3.161867,2.257114 v 0 c 0.542824,-0.05481 1.085148,-0.114395 1.628274,-0.166137 0.737706,-0.06695 1.471943,-0.17018 2.170055,-0.431127 1.039796,-0.344477 2.067202,-0.72544 2.983924,-1.340551 0.469437,-0.320939 0.637492,-0.415795 1.068861,-0.791947 0.736713,-0.642413 1.364442,-1.403722 1.95356,-2.179456 1.070646,-1.476102 2.040913,-3.021162 2.977212,-4.585406 0.703291,-1.171083 1.454432,-2.313209 2.190891,-3.463571 0.688048,-0.988113 1.43207,-1.9433 2.344186,-2.737417 0.990472,-0.873792 2.021582,-1.697193 3.053578,-2.521184 0.642318,-0.52166 1.284135,-1.0435 1.944162,-1.542491 0.349932,-0.259511 0.703365,-0.514262 1.063796,-0.759163 2.653444,-1.714113 5.457322,-3.190312 8.297672,-4.566918 0.774501,-0.352116 1.54415,-0.715107 2.323501,-1.056348 2.417888,-1.058679 4.88697,-2.014616 7.407762,-2.798795 0,0 -3.249997,-2.195009 -3.249997,-2.195009 z"
     transform="matrix(1,0,0,1.5419319,-0.29563041,-22.315691)" /><path
     style="fill:#ffda33;fill-opacity:1;stroke-width:0.264583;filter:url(#filter479-9-5)"
     id="path362-5-2"
     d="m 60.324019,43.66336 c -0.631253,0.316255 -0.728998,0.369615 -1.476607,0.716816 -2.556952,1.187489 -5.116805,2.362498 -7.663278,3.573211 -2.921953,1.442877 -5.880614,2.813459 -8.792561,4.276492 -0.390493,0.28277 -0.922117,0.376099 -1.279699,0.70649 -0.58153,0.559442 -1.158549,1.120528 -1.765558,1.653118 -1.025855,0.844496 -2.091451,1.639024 -3.117668,2.483197 -0.920935,0.826458 -1.649515,1.836316 -2.350549,2.848696 -0.783642,1.131186 -1.483367,2.316449 -2.172865,3.506341 -0.889182,1.576381 -1.836353,3.124309 -2.935717,4.563466 -0.73751,0.910119 -1.524687,1.79607 -2.484272,2.479801 -0.171851,0.122449 -0.354142,0.229544 -0.531213,0.344315 -0.920556,0.573862 -1.94157,0.914085 -2.974512,1.215799 -0.694159,0.197821 -1.411957,0.294746 -2.129182,0.360392 -0.546904,0.06751 -1.095929,0.113466 -1.645623,0.150272 0,0 3.161867,2.257114 3.161867,2.257114 v 0 c 0.542824,-0.05481 1.085148,-0.114395 1.628274,-0.166137 0.737706,-0.06695 1.471943,-0.17018 2.170055,-0.431127 1.039796,-0.344477 2.067202,-0.72544 2.983924,-1.340551 0.469437,-0.320939 0.637492,-0.415795 1.068861,-0.791947 0.736713,-0.642413 1.364442,-1.403722 1.95356,-2.179456 1.070646,-1.476102 2.040913,-3.021162 2.977212,-4.585406 0.703291,-1.171083 1.454432,-2.313209 2.190891,-3.463571 0.688048,-0.988113 1.43207,-1.9433 2.344186,-2.737417 0.990472,-0.873792 2.021582,-1.697193 3.053578,-2.521184 0.642318,-0.52166 1.284135,-1.0435 1.944162,-1.542491 0.349932,-0.259511 0.703365,-0.514262 1.063796,-0.759163 2.653444,-1.714113 5.457322,-3.190312 8.297672,-4.566918 0.774501,-0.352116 1.54415,-0.715107 2.323501,-1.056348 2.417888,-1.058679 4.88697,-2.014616 7.407762,-2.798795 0,0 -3.249997,-2.195008 -3.249997,-2.195009 z"
     transform="matrix(0.20742421,-0.59577068,0.71878487,0.06452282,-19.256244,88.738116)" /><path
     style="fill:#ffda33;fill-opacity:1;stroke-width:0.264583;filter:url(#filter479-9-5-7)"
     id="path362-5-2-7"
     d="m 60.324019,43.66336 c -0.631253,0.316255 -0.728998,0.369615 -1.476607,0.716816 -2.556952,1.187489 -5.116805,2.362498 -7.663278,3.573211 -2.921953,1.442877 -5.880614,2.813459 -8.792561,4.276492 -0.390493,0.28277 -0.922117,0.376099 -1.279699,0.70649 -0.58153,0.559442 -1.158549,1.120528 -1.765558,1.653118 -1.025855,0.844496 -2.091451,1.639024 -3.117668,2.483197 -0.920935,0.826458 -1.649515,1.836316 -2.350549,2.848696 -0.783642,1.131186 -1.483367,2.316449 -2.172865,3.506341 -0.889182,1.576381 -1.836353,3.124309 -2.935717,4.563466 -0.73751,0.910119 -1.524687,1.79607 -2.484272,2.479801 -0.171851,0.122449 -0.354142,0.229544 -0.531213,0.344315 -0.920556,0.573862 -1.94157,0.914085 -2.974512,1.215799 -0.694159,0.197821 -1.411957,0.294746 -2.129182,0.360392 -0.546904,0.06751 -1.095929,0.113466 -1.645623,0.150272 0,0 3.161867,2.257114 3.161867,2.257114 v 0 c 0.542824,-0.05481 1.085148,-0.114395 1.628274,-0.166137 0.737706,-0.06695 1.471943,-0.17018 2.170055,-0.431127 1.039796,-0.344477 2.067202,-0.72544 2.983924,-1.340551 0.469437,-0.320939 0.637492,-0.415795 1.068861,-0.791947 0.736713,-0.642413 1.364442,-1.403722 1.95356,-2.179456 1.070646,-1.476102 2.040913,-3.021162 2.977212,-4.585406 0.703291,-1.171083 1.454432,-2.313209 2.190891,-3.463571 0.688048,-0.988113 1.43207,-1.9433 2.344186,-2.737417 0.990472,-0.873792 2.021582,-1.697193 3.053578,-2.521184 0.642318,-0.52166 1.284135,-1.0435 1.944162,-1.542491 0.349932,-0.259511 0.703365,-0.514262 1.063796,-0.759163 2.653444,-1.714113 5.457322,-3.190312 8.297672,-4.566918 0.774501,-0.352116 1.54415,-0.715107 2.323501,-1.056348 2.417888,-1.058679 4.88697,-2.014616 7.407762,-2.798795 0,0 -3.249997,-2.195008 -3.249997,-2.195009 z"
     transform="matrix(1,0,0,1.1823774,-0.32629259,-2.2969618)" /><path
     style="fill:#e7305f;fill-opacity:1;stroke-width:0.264583;filter:url(#filter479-4)"
     id="path362-5-2-2"
     d="m 78.981549,51.228735 c -0.631253,0.316255 -0.728998,0.369615 -1.476607,0.716816 -2.556952,1.187489 -5.116805,2.362498 -7.663278,3.573211 -2.921953,1.442877 -5.880614,2.813459 -8.792561,4.276492 -0.390493,0.28277 -0.922117,0.376099 -1.279699,0.70649 -0.58153,0.559442 -1.158549,1.120528 -1.765558,1.653118 -1.025855,0.844496 -2.091451,1.639024 -3.117668,2.483197 -0.920935,0.826458 -1.649515,1.836316 -2.350549,2.848696 -0.783642,1.131186 -1.483367,2.316449 -2.172865,3.506341 -0.889182,1.576381 -1.836353,3.124309 -2.935717,4.563466 -0.73751,0.910119 -1.524687,1.79607 -2.484272,2.479801 -0.171851,0.122449 -0.354142,0.229544 -0.531213,0.344315 -0.920556,0.573862 -1.94157,0.914085 -2.974512,1.215799 -0.694159,0.197821 -1.411957,0.294746 -2.129182,0.360392 -0.546904,0.06751 -1.095929,0.113466 -1.645623,0.150272 0,0 3.161867,2.257114 3.161867,2.257114 v 0 c 0.542824,-0.05481 1.085148,-0.114395 1.628274,-0.166137 0.737706,-0.06695 1.471943,-0.17018 2.170055,-0.431127 1.039796,-0.344477 2.067202,-0.72544 2.983924,-1.340551 0.469437,-0.320939 0.637492,-0.415795 1.068861,-0.791947 0.736713,-0.642413 1.364442,-1.403722 1.95356,-2.179456 1.070646,-1.476102 2.040913,-3.021162 2.977212,-4.585406 0.703291,-1.171083 1.454432,-2.313209 2.190891,-3.463571 0.688048,-0.988113 1.43207,-1.9433 2.344186,-2.737417 0.990472,-0.873792 2.021582,-1.697193 3.053578,-2.521184 0.642318,-0.52166 1.284135,-1.0435 1.944162,-1.542491 0.349932,-0.259511 0.703365,-0.514262 1.063796,-0.759163 2.653444,-1.714113 5.457322,-3.190312 8.297672,-4.566918 0.774501,-0.352116 1.54415,-0.715107 2.323501,-1.056348 2.417888,-1.058679 4.88697,-2.014616 7.407762,-2.798795 0,0 -3.249997,-2.195008 -3.249997,-2.195009 z"
     transform="matrix(-1.0507414,0.05318758,-0.05318758,-1.0507414,131.42027,133.56306)" /><path
     style="fill:#e7305f;fill-opacity:1;stroke-width:0.264583;filter:url(#filter479-4-5)"
     id="path362-5-2-2-5"
     d="m 78.981549,51.228735 c -0.631253,0.316255 -0.728998,0.369615 -1.476607,0.716816 -2.556952,1.187489 -5.116805,2.362498 -7.663278,3.573211 -2.921953,1.442877 -5.880614,2.813459 -8.792561,4.276492 -0.390493,0.28277 -0.922117,0.376099 -1.279699,0.70649 -0.58153,0.559442 -1.158549,1.120528 -1.765558,1.653118 -1.025855,0.844496 -2.091451,1.639024 -3.117668,2.483197 -0.920935,0.826458 -1.649515,1.836316 -2.350549,2.848696 -0.783642,1.131186 -1.483367,2.316449 -2.172865,3.506341 -0.889182,1.576381 -1.836353,3.124309 -2.935717,4.563466 -0.73751,0.910119 -1.524687,1.79607 -2.484272,2.479801 -0.171851,0.122449 -0.354142,0.229544 -0.531213,0.344315 -0.920556,0.573862 -1.94157,0.914085 -2.974512,1.215799 -0.694159,0.197821 -1.411957,0.294746 -2.129182,0.360392 -0.546904,0.06751 -1.095929,0.113466 -1.645623,0.150272 0,0 3.161867,2.257114 3.161867,2.257114 v 0 c 0.542824,-0.05481 1.085148,-0.114395 1.628274,-0.166137 0.737706,-0.06695 1.471943,-0.17018 2.170055,-0.431127 1.039796,-0.344477 2.067202,-0.72544 2.983924,-1.340551 0.469437,-0.320939 0.637492,-0.415795 1.068861,-0.791947 0.736713,-0.642413 1.364442,-1.403722 1.95356,-2.179456 1.070646,-1.476102 2.040913,-3.021162 2.977212,-4.585406 0.703291,-1.171083 1.454432,-2.313209 2.190891,-3.463571 0.688048,-0.988113 1.43207,-1.9433 2.344186,-2.737417 0.990472,-0.873792 2.021582,-1.697193 3.053578,-2.521184 0.642318,-0.52166 1.284135,-1.0435 1.944162,-1.542491 0.349932,-0.259511 0.703365,-0.514262 1.063796,-0.759163 2.653444,-1.714113 5.457322,-3.190312 8.297672,-4.566918 0.774501,-0.352116 1.54415,-0.715107 2.323501,-1.056348 2.417888,-1.058679 4.88697,-2.014616 7.407762,-2.798795 0,0 -3.249997,-2.195008 -3.249997,-2.195009 z"
     transform="matrix(0.66496046,-0.41233722,0.41233722,0.66496046,-0.86698989,39.955909)" /><path
     d="m 26.001845,7.6111033 c -10.15595,0 -18.3907416,8.2347927 -18.3907416,18.3907417 V 73.99816 c 0,10.155949 8.2347916,18.390737 18.3907416,18.390737 H 73.99816 c 10.155949,0 18.390737,-8.234788 18.390737,-18.390737 V 26.001845 c 0,-10.155949 -8.234788,-18.3907417 -18.390737,-18.3907417 z m 0,3.7541477 H 73.99816 c 8.141335,0 14.637474,6.495259 14.637474,14.637476 v 47.996314 c 0,8.141335 -6.495258,14.637475 -14.637474,14.637475 H 26.001845 c -8.141335,0 -14.637475,-6.495259 -14.637475,-14.637475 V 26.001845 c 0,-8.141335 6.495259,-14.637475 14.637475,-14.637475 z m 11.494323,17.213712 a 0.75823563,0.75823563 0 0 0 -0.128725,0.01147 c -0.292713,0.05113 -0.543989,0.271553 -0.489325,0.531645 l 3.992198,19.012318 c 0.06261,0.298004 0.275963,0.543109 0.61805,0.543109 h 6.296882 c 0.342088,0 0.618051,-0.242459 0.618051,-0.543109 v -5.963611 c 0,-0.625104 0.715034,-1.132064 1.596703,-1.132064 0.881669,0 1.596703,0.50696 1.596703,1.132064 v 5.963611 c 0,0.30065 0.275963,0.543109 0.618051,0.543109 h 6.296881 c 0.342089,0 0.555453,-0.245986 0.618051,-0.543109 l 3.992199,-19.012318 c 0.05467,-0.260092 -0.196612,-0.480509 -0.489326,-0.531645 a 0.78468572,0.78468572 0 0 0 -0.128724,-0.01147 H 52.214756 47.785248 Z m 0,42.842077 A 0.75823563,0.75823563 0 0 1 37.367443,71.40958 C 37.07473,71.35844 36.823454,71.138028 36.878118,70.877935 l 3.992198,-19.012318 c 0.06261,-0.298004 0.275963,-0.543108 0.61805,-0.543108 h 6.296882 c 0.342088,0 0.618051,0.24246 0.618051,0.543108 v 5.963612 c 0,0.625103 0.715034,1.132063 1.596703,1.132063 0.881669,0 1.596703,-0.50696 1.596703,-1.132063 v -5.963612 c 0,-0.300648 0.275963,-0.543108 0.618051,-0.543108 h 6.296881 c 0.342089,0 0.555453,0.245986 0.618051,0.543108 l 3.992199,19.012318 c 0.05467,0.260093 -0.196612,0.48051 -0.489326,0.531646 a 0.78468572,0.78468572 0 0 1 -0.128724,0.01146 H 52.214756 47.785248 Z"
     id="path86"
     style="stroke-width:0.881671" /></svg>
