<?xml version="1.0" encoding="UTF-8" standalone="no"?>
<svg
   width="377.953"
   height="377.953"
   viewBox="0 0 100 100"
   fill="#ffffff"
   version="1.1"
   id="svg88"
   xml:space="preserve"
   sodipodi:docname="app-icon.svg"
   inkscape:version="1.2.1 (9c6d41e, 2022-07-14)"
   inkscape:export-filename="app-icon-min.svg"
   inkscape:export-xdpi="96"
   inkscape:export-ydpi="96"
   xmlns:inkscape="http://www.inkscape.org/namespaces/inkscape"
   xmlns:sodipodi="http://sodipodi.sourceforge.net/DTD/sodipodi-0.dtd"
   xmlns="http://www.w3.org/2000/svg"
   xmlns:svg="http://www.w3.org/2000/svg"><sodipodi:namedview
     id="namedview29"
     pagecolor="#505050"
     bordercolor="#eeeeee"
     borderopacity="1"
     inkscape:showpageshadow="0"
     inkscape:pageopacity="0"
     inkscape:pagecheckerboard="0"
     inkscape:deskcolor="#505050"
     showgrid="false"
     inkscape:zoom="1.3586345"
     inkscape:cx="23.185043"
     inkscape:cy="270.49217"
     inkscape:window-width="2136"
     inkscape:window-height="1205"
     inkscape:window-x="2240"
     inkscape:window-y="160"
     inkscape:window-maximized="0"
     inkscape:current-layer="svg88" /><defs
     id="defs92"><filter
       style="color-interpolation-filters:sRGB"
       inkscape:label="Blur"
       id="filter13591"
       x="-0.51682597"
       y="-0.34972274"
       width="2.0336518"
       height="1.6994455"><feGaussianBlur
         stdDeviation="5.12131 5.76022"
         result="blur"
         id="feGaussianBlur13589" /></filter><filter
       style="color-interpolation-filters:sRGB"
       inkscape:label="Blur"
       id="filter13591-7"
       x="-0.34238181"
       y="-0.3323704"
       width="1.6847636"
       height="1.6647408"><feGaussianBlur
         stdDeviation="5.12131 5.76022"
         result="blur"
         id="feGaussianBlur13589-6" /></filter><filter
       style="color-interpolation-filters:sRGB"
       inkscape:label="Blur"
       id="filter13591-3"
       x="-0.27713823"
       y="-0.25542453"
       width="1.5542765"
       height="1.5108491"><feGaussianBlur
         stdDeviation="5.12131 5.76022"
         result="blur"
         id="feGaussianBlur13589-8" /></filter></defs><path
     style="fill:#f7c639;fill-opacity:1;stroke-width:0.264583;filter:url(#filter13591)"
     id="path915"
     d="m 50.745373,15.641501 c -0.11729,0.04811 -0.23314,0.0999 -0.351872,0.144333 -0.194191,0.07268 -0.392176,0.134897 -0.586618,0.206901 -1.068384,0.395634 -2.131829,0.811717 -3.165317,1.292138 -0.477006,0.221739 -0.945284,0.46179 -1.417928,0.692685 -1.617169,0.904659 -1.608723,0.851529 -3.198889,1.953893 -0.592307,0.41061 -1.186817,0.820157 -1.749218,1.27086 -0.674721,0.540716 -1.325204,1.112136 -1.958688,1.700628 -1.091897,1.014351 -3.39797,3.37872 -4.429802,4.425893 -2.01433,2.109212 -3.979323,4.275055 -5.768516,6.581045 -1.546121,1.992708 -2.953633,4.088289 -4.34677,6.188587 -0.371367,0.658196 -0.761929,1.305925 -1.1141,1.974587 -0.344371,0.653854 -0.659494,1.322834 -0.974632,1.991269 -0.76624,1.625263 -1.492384,3.284501 -2.042067,4.997576 -0.146244,0.455768 -0.26291,0.920501 -0.394365,1.380754 -0.408111,1.558252 -0.756335,3.131445 -1.097105,4.705561 -0.02027,0.0926 -0.04055,0.185195 -0.06082,0.277794 0,0 3.435068,1.809233 3.435068,1.809233 v 0 c 0.0058,-0.09859 0.01153,-0.19717 0.01729,-0.295754 0.135447,-1.634949 0.36485,-3.262871 0.709581,-4.867274 0.277969,-1.147331 0.405724,-1.760137 0.771349,-2.902316 0.841694,-2.629375 1.998648,-5.148918 3.3897,-7.531961 0.402619,-0.659251 0.790976,-1.327427 1.207856,-1.977751 1.015113,-1.583551 1.851847,-2.754988 2.984308,-4.266438 1.737936,-2.31955 3.574516,-4.566821 5.592933,-6.65012 0.75161,-0.746167 1.478586,-1.517996 2.254828,-2.238506 1.53536,-1.425129 2.778875,-2.419448 4.455427,-3.626948 1.169426,-0.842254 2.268465,-1.550497 3.527841,-2.244853 0.518414,-0.285828 1.055988,-0.535439 1.583983,-0.803158 0.491833,-0.211549 0.978412,-0.435756 1.475501,-0.634648 1.270599,-0.508386 2.705897,-0.983599 4.057702,-1.235059 0.144079,-0.0268 0.29038,-0.03983 0.435573,-0.05975 0,0 -3.242231,-2.259205 -3.242231,-2.259205 z" /><path
     style="fill:#f7c639;fill-opacity:1;stroke-width:0.264583;filter:url(#filter13591-7)"
     id="path915-2"
     d="m 71.571892,30.225529 c -0.11729,0.04811 -0.23314,0.0999 -0.351872,0.144333 -0.194191,0.07268 -0.392176,0.134897 -0.586618,0.206901 -1.068384,0.395634 -2.131829,0.811717 -3.165317,1.292138 -0.477006,0.221739 -0.945284,0.46179 -1.417928,0.692685 -1.617169,0.904659 -1.608723,0.851529 -3.198889,1.953893 -0.592307,0.41061 -1.186817,0.820157 -1.749218,1.27086 -0.674721,0.540716 -1.325204,1.112136 -1.958688,1.700628 -1.091897,1.014351 -3.39797,3.37872 -4.429802,4.425893 -2.01433,2.109212 -3.979323,4.275055 -5.768516,6.581045 -1.546121,1.992708 -2.953633,4.088289 -4.34677,6.188587 -0.371367,0.658196 -0.761929,1.305925 -1.1141,1.974587 -0.344371,0.653854 -0.659494,1.322834 -0.974632,1.991269 -0.76624,1.625263 -1.492384,3.284501 -2.042067,4.997576 -0.146244,0.455768 -0.26291,0.920501 -0.394365,1.380754 -0.408111,1.558252 -0.756335,3.131445 -1.097105,4.705561 -0.02027,0.0926 -0.04055,0.185195 -0.06082,0.277794 0,0 3.435068,1.809233 3.435068,1.809233 v 0 c 0.0058,-0.09859 0.01153,-0.19717 0.01729,-0.295754 0.135447,-1.634949 0.36485,-3.262871 0.709581,-4.867274 0.277969,-1.147331 0.405724,-1.760137 0.771349,-2.902316 0.841694,-2.629375 1.998648,-5.148918 3.3897,-7.531961 0.402619,-0.659251 0.790976,-1.327427 1.207856,-1.977751 1.015113,-1.583551 1.851847,-2.754988 2.984308,-4.266438 1.737936,-2.31955 3.574516,-4.566821 5.592933,-6.65012 0.75161,-0.746167 1.478586,-1.517996 2.254828,-2.238506 1.53536,-1.425129 2.778875,-2.419448 4.455427,-3.626948 1.169426,-0.842254 2.268465,-1.550497 3.527841,-2.244853 0.518414,-0.285828 1.055988,-0.535439 1.583983,-0.803158 0.491833,-0.211549 0.978412,-0.435756 1.475501,-0.634648 1.270599,-0.508386 2.705897,-0.983599 4.057702,-1.235059 0.144079,-0.0268 0.29038,-0.03983 0.435573,-0.05975 0,0 -3.242231,-2.259205 -3.242231,-2.259205 z"
     transform="rotate(180,59.510487,56.049477)" /><path
     style="fill:#4846ee;fill-opacity:1;stroke-width:0.264583;filter:url(#filter13591)"
     id="path917"
     d="m 26.336344,80.2595 c -0.363402,-1.200208 -0.527836,-2.472202 -0.460954,-3.726575 0.02221,-0.416464 0.08537,-0.829732 0.128062,-1.244596 0.08912,-0.438274 0.1513,-0.882898 0.26735,-1.31482 0.429592,-1.598884 1.136354,-3.127669 2.114068,-4.467127 0.956233,-1.310033 1.484764,-1.720055 2.650803,-2.842438 1.952463,-1.703103 4.104476,-3.147484 6.24089,-4.603942 0.454289,-0.309703 0.913825,-0.611844 1.362976,-0.928955 0.409512,-0.289123 0.808416,-0.592986 1.212622,-0.889478 1.053316,-0.944281 1.185613,-1.01356 2.130344,-2.053808 0.310552,-0.34195 0.621467,-0.68526 0.899729,-1.053962 0.53354,-0.706955 1.140435,-1.730477 1.54937,-2.512825 0.225054,-0.430559 0.419909,-0.876244 0.629864,-1.314368 0.482967,-1.172865 0.956743,-2.412773 1.17183,-3.669847 0.11688,-0.683101 0.176559,-1.711734 0.15652,-2.406445 -0.01154,-0.400312 -0.06324,-0.798454 -0.09486,-1.197681 -0.13017,-1.27682 -0.470945,-2.514958 -0.843306,-3.738258 0,0 -3.343461,-1.56484 -3.343461,-1.56484 v 0 c 0.09426,0.241112 0.195879,0.479472 0.282771,0.723336 0.347934,0.976478 0.614515,1.981204 0.755734,3.009451 0.09358,1.010096 0.159072,1.316806 0.105222,2.332798 -0.08836,1.667053 -0.538054,3.287414 -1.159912,4.829039 -0.524808,1.120608 -0.663847,1.510704 -1.332951,2.561689 -1.021963,1.605237 -2.319773,3.025556 -3.777583,4.242681 -0.385744,0.304136 -0.767318,0.613637 -1.157232,0.91241 -0.709818,0.543903 -2.059729,1.5291 -2.760216,2.035991 -0.426151,0.308377 -2.879194,2.059444 -3.267104,2.362812 -0.509064,0.398121 -0.988491,0.832752 -1.482738,1.249129 -1.094162,1.051033 -1.815217,1.666802 -2.748973,2.869484 -0.811934,1.045775 -1.23068,1.82153 -1.759392,3.016256 -0.212375,0.479898 -0.415709,0.965548 -0.575506,1.46542 -0.137935,0.431482 -0.210346,0.881234 -0.315519,1.32185 -0.149825,0.892436 -0.272075,1.419438 -0.301096,2.308212 -0.0093,0.28356 0.01548,0.567269 0.03027,0.850593 0.03069,0.587581 0.09698,1.169807 0.172931,1.752853 0,0 3.519443,1.685961 3.519443,1.685961 z" /><path
     style="fill:#3cff8f;fill-opacity:1;stroke-width:0.264583;filter:url(#filter13591)"
     id="path919"
     d="m 26.061032,26.483624 c 1.967331,-0.434951 4.002978,-0.45675 6.008196,-0.488337 4.090614,0.106093 8.131164,0.908454 12.055636,2.034149 0.800454,0.229602 1.591341,0.491323 2.387011,0.736984 3.134446,0.996374 6.100108,2.431759 8.961924,4.038547 0.136552,0.07667 -0.554304,-0.287133 -0.426995,-0.195937 0.600691,0.430287 1.235101,0.811442 1.852654,1.217162 2.297309,1.61124 4.478287,3.426148 6.289314,5.580649 0.297182,0.353544 0.570033,0.726842 0.85505,1.090263 1.137195,1.583551 2.126185,3.272824 3.017399,5.00572 0.262012,0.50946 0.525439,1.01873 0.76227,1.540371 0.267604,0.589417 0.500194,1.194112 0.750291,1.791167 1.006713,2.727093 1.800814,5.541118 2.347327,8.397394 0.328019,1.714342 0.377872,2.339912 0.58648,4.034858 0.237445,2.283342 0.346075,4.576969 0.344421,6.871924 -0.0081,0.177606 -0.01625,0.355213 -0.02437,0.532817 0,0 3.364429,1.713105 3.364429,1.713105 v 0 c -0.0091,-0.190839 -0.01826,-0.381675 -0.02738,-0.572511 -0.164155,-2.386646 -0.443571,-4.763192 -0.784111,-7.13091 -0.322709,-2.102703 -0.642886,-4.208767 -1.117554,-6.284157 -0.314367,-1.37452 -0.732853,-2.82787 -1.137358,-4.17807 -0.203433,-0.679039 -0.41938,-1.354266 -0.629071,-2.031398 -0.22049,-0.591886 -0.419404,-1.192264 -0.661471,-1.77566 -0.418795,-1.009324 -0.928623,-1.963381 -1.4392,-2.927247 -0.663789,-1.253101 -1.346307,-2.498538 -2.199728,-3.636124 -0.290743,-0.374198 -0.568515,-0.758843 -0.872233,-1.12259 -1.874791,-2.245345 -4.16337,-4.111749 -6.553452,-5.778877 -3.01813,-1.972261 -2.245684,-1.512593 -6.592463,-3.99034 -2.866917,-1.634199 -5.879239,-3.037917 -9.033734,-4.019219 -2.061976,-0.614676 -2.743259,-0.847689 -4.857747,-1.354228 -3.236135,-0.775237 -6.530645,-1.29969 -9.853577,-1.503071 -0.624242,-0.009 -1.24842,-0.02528 -1.872722,-0.02708 -1.576618,-0.0045 -3.152411,0.05147 -4.726168,0.14027 0,0 3.226921,2.290372 3.226921,2.290372 z" /><path
     style="fill:#f22e9b;fill-opacity:1;stroke-width:0.264583;filter:url(#filter13591)"
     id="path921"
     d="m 39.632885,80.591525 c 1.141973,0.09619 -0.01185,0.0042 1.69057,0.111615 0.508129,0.03205 1.015224,0.08217 1.52393,0.103206 0.680879,0.02815 1.362455,0.03994 2.043903,0.04431 0.793942,0.0051 1.588911,0.02482 2.381822,-0.01595 0.897122,-0.04613 1.789207,-0.162999 2.68381,-0.244498 2.198326,-0.313026 3.188468,-0.401717 5.335391,-0.909915 0.796443,-0.188526 1.593661,-0.385209 2.366413,-0.654873 0.766252,-0.267395 1.512664,-0.593822 2.240527,-0.95279 2.02272,-0.997566 2.261033,-1.31352 4.070708,-2.679333 1.833328,-1.533574 3.618412,-3.138337 5.09711,-5.027519 0.884395,-1.129905 2.337483,-3.324795 3.054723,-4.543184 0.5061,-0.859729 0.955733,-1.751475 1.433599,-2.62721 1.279376,-2.470834 2.474649,-4.988925 3.494186,-7.579168 0.304421,-0.773419 0.602358,-1.550163 0.863112,-2.339372 0.536485,-1.623745 0.933566,-3.271696 1.360926,-4.925473 0.537038,-2.152458 0.922044,-4.34023 1.20352,-6.539919 0.07961,-0.622177 0.155869,-1.245162 0.207219,-1.870306 0.09104,-1.108307 0.123727,-2.584544 0.158716,-3.701312 0.07994,-2.305901 -0.04876,-4.610058 -0.15797,-6.912381 -0.02593,-0.632893 -0.01593,-0.339841 -0.03168,-0.879096 0,0 -3.441719,-1.712173 -3.441719,-1.712173 v 0 c 0.09141,0.573838 0.04351,0.2629 0.141986,0.933079 0.326323,2.347591 0.600135,4.707233 0.583268,7.081925 -0.0072,0.603885 -0.0021,1.208037 -0.02151,1.811649 -0.112215,3.48565 -0.508187,6.965517 -1.257439,10.372797 -0.203515,0.81544 -0.385641,1.636521 -0.610539,2.446323 -0.441803,1.590817 -1.002148,3.247769 -1.569044,4.798599 -0.953373,2.608084 -2.029924,5.171622 -3.339286,7.623528 -1.20207,2.077022 -1.647686,2.969356 -3.033708,4.897418 -1.899654,2.642567 -4.16148,5.014052 -6.663712,7.090051 -1.670919,1.206578 -2.208909,1.706794 -4.051966,2.606263 -3.055192,1.491029 -6.430128,2.137819 -9.782404,2.511204 -0.923692,0.05047 -1.846132,0.136268 -2.77108,0.151407 -1.560356,0.02553 -3.132382,-0.09625 -4.683461,-0.251343 -0.951613,-0.09515 -1.990808,-0.232539 -2.936069,-0.418917 -0.235558,-0.04644 -0.465999,-0.115869 -0.698999,-0.173802 0,0 3.115141,2.375168 3.115141,2.375168 z" /><path
     d="m 26.001845,7.6111033 c -10.15595,0 -18.3907416,8.2347927 -18.3907416,18.3907417 V 73.99816 c 0,10.155949 8.2347916,18.390737 18.3907416,18.390737 H 73.99816 c 10.155949,0 18.390737,-8.234788 18.390737,-18.390737 V 26.001845 c 0,-10.155949 -8.234788,-18.3907417 -18.390737,-18.3907417 z m 0,3.7541477 H 73.99816 c 8.141335,0 14.637474,6.495259 14.637474,14.637476 v 47.996314 c 0,8.141335 -6.495258,14.637475 -14.637474,14.637475 H 26.001845 c -8.141335,0 -14.637475,-6.495259 -14.637475,-14.637475 V 26.001845 c 0,-8.141335 6.495259,-14.637475 14.637475,-14.637475 z m 11.494323,17.213712 a 0.75823563,0.75823563 0 0 0 -0.128725,0.01147 c -0.292713,0.05113 -0.543989,0.271553 -0.489325,0.531645 l 3.992198,19.012318 c 0.06261,0.298004 0.275963,0.543109 0.61805,0.543109 h 6.296882 c 0.342088,0 0.618051,-0.242459 0.618051,-0.543109 v -5.963611 c 0,-0.625104 0.715034,-1.132064 1.596703,-1.132064 0.881669,0 1.596703,0.50696 1.596703,1.132064 v 5.963611 c 0,0.30065 0.275963,0.543109 0.618051,0.543109 h 6.296881 c 0.342089,0 0.555453,-0.245986 0.618051,-0.543109 l 3.992199,-19.012318 c 0.05467,-0.260092 -0.196612,-0.480509 -0.489326,-0.531645 a 0.78468572,0.78468572 0 0 0 -0.128724,-0.01147 H 52.214756 47.785248 Z m 0,42.842077 A 0.75823563,0.75823563 0 0 1 37.367443,71.40958 C 37.07473,71.35844 36.823454,71.138028 36.878118,70.877935 l 3.992198,-19.012318 c 0.06261,-0.298004 0.275963,-0.543108 0.61805,-0.543108 h 6.296882 c 0.342088,0 0.618051,0.24246 0.618051,0.543108 v 5.963612 c 0,0.625103 0.715034,1.132063 1.596703,1.132063 0.881669,0 1.596703,-0.50696 1.596703,-1.132063 v -5.963612 c 0,-0.300648 0.275963,-0.543108 0.618051,-0.543108 h 6.296881 c 0.342089,0 0.555453,0.245986 0.618051,0.543108 l 3.992199,19.012318 c 0.05467,0.260093 -0.196612,0.48051 -0.489326,0.531646 a 0.78468572,0.78468572 0 0 1 -0.128724,0.01146 H 52.214756 47.785248 Z"
     id="path86"
     style="stroke-width:0.881671" /><path
     style="display:inline;fill:#f7c639;fill-opacity:1;stroke-width:0.264583;filter:url(#filter13591)"
     id="path915-9"
     d="m 28.373577,15.784013 c -0.11729,0.04811 -0.23314,0.0999 -0.351872,0.144333 -0.194191,0.07268 -0.392176,0.134897 -0.586618,0.206901 -1.068384,0.395634 -2.131829,0.811717 -3.165317,1.292138 -0.477006,0.221739 -0.945284,0.46179 -1.417928,0.692685 -1.617169,0.904659 -1.608723,0.851529 -3.198889,1.953893 -0.592307,0.41061 -1.186817,0.820157 -1.749218,1.27086 -0.674721,0.540716 -1.325204,1.112136 -1.958688,1.700628 -1.091897,1.014351 -3.39797,3.37872 -4.429802,4.425893 -2.01433,2.109212 -3.979323,4.275055 -5.768516,6.581045 -1.546121,1.992708 -2.953633,4.088289 -4.34677,6.188587 -0.371367,0.658196 -0.761929,1.305925 -1.1141,1.974587 -0.344371,0.653854 -0.659494,1.322834 -0.974632,1.991269 -0.76624,1.625263 -1.492384,3.284501 -2.042067,4.997576 -0.146244,0.455768 -0.26291,0.920501 -0.394365,1.380754 -0.408111,1.558252 -0.756335,3.131445 -1.097105,4.705561 -0.02027,0.0926 -0.04055,0.185195 -0.06082,0.277794 0,0 3.435068,1.809233 3.435068,1.809233 v 0 c 0.0058,-0.09859 0.01153,-0.19717 0.01729,-0.295754 0.135447,-1.634949 0.36485,-3.262871 0.709581,-4.867274 0.277969,-1.147331 0.405724,-1.760137 0.771349,-2.902316 0.841694,-2.629375 1.998648,-5.148918 3.3897,-7.531961 0.402619,-0.659251 0.790976,-1.327427 1.207856,-1.977751 1.015113,-1.583551 1.851847,-2.754988 2.984308,-4.266438 1.737936,-2.31955 3.574516,-4.566821 5.592933,-6.65012 0.75161,-0.746167 1.478586,-1.517996 2.254828,-2.238506 1.53536,-1.425129 2.778875,-2.419448 4.455427,-3.626948 1.169426,-0.842254 2.268465,-1.550497 3.527841,-2.244853 0.518414,-0.285828 1.055988,-0.535439 1.583983,-0.803158 0.491833,-0.211549 0.978412,-0.435756 1.475501,-0.634648 1.270599,-0.508386 2.705897,-0.983599 4.057702,-1.235059 0.144079,-0.0268 0.29038,-0.03983 0.435573,-0.05975 0,0 -3.242231,-2.259205 -3.242231,-2.259205 z"
     transform="matrix(-0.60335912,0,0,-0.62739128,52.290292,64.087368)" /><path
     style="display:inline;fill:#4846ee;fill-opacity:1;stroke-width:0.264583;filter:url(#filter13591)"
     id="path917-7"
     d="M 3.964548,80.402012 C 3.601146,79.201804 3.436712,77.92981 3.503594,76.675437 c 0.02221,-0.416464 0.08537,-0.829732 0.128062,-1.244596 0.08912,-0.438274 0.1513,-0.882898 0.26735,-1.31482 0.429592,-1.598884 1.136354,-3.127669 2.114068,-4.467127 0.956233,-1.310033 1.484764,-1.720055 2.650803,-2.842438 1.952463,-1.703103 4.104476,-3.147484 6.24089,-4.603942 0.454289,-0.309703 0.913825,-0.611844 1.362976,-0.928955 0.409512,-0.289123 0.808416,-0.592986 1.212622,-0.889478 1.053316,-0.944281 1.185613,-1.01356 2.130344,-2.053808 0.310552,-0.34195 0.621467,-0.68526 0.899729,-1.053962 0.53354,-0.706955 1.140435,-1.730477 1.54937,-2.512825 0.225054,-0.430559 0.419909,-0.876244 0.629864,-1.314368 0.482967,-1.172865 0.956743,-2.412773 1.17183,-3.669847 0.11688,-0.683101 0.176559,-1.711734 0.15652,-2.406445 -0.01154,-0.400312 -0.06324,-0.798454 -0.09486,-1.197681 -0.13017,-1.27682 -0.470945,-2.514958 -0.843306,-3.738258 0,0 -3.343461,-1.56484 -3.343461,-1.56484 v 0 c 0.09426,0.241112 0.195879,0.479472 0.282771,0.723336 0.347934,0.976478 0.614515,1.981204 0.755734,3.009451 0.09358,1.010096 0.159072,1.316806 0.105222,2.332798 -0.08836,1.667053 -0.538054,3.287414 -1.159912,4.829039 -0.524808,1.120608 -0.663847,1.510704 -1.332951,2.561689 -1.021963,1.605237 -2.319773,3.025556 -3.777583,4.242681 -0.385744,0.304136 -0.767318,0.613637 -1.157232,0.91241 -0.709818,0.543903 -2.059729,1.5291 -2.760216,2.035991 -0.426151,0.308377 -2.879194,2.059444 -3.267104,2.362812 -0.509064,0.398121 -0.988491,0.832752 -1.482738,1.249129 -1.094162,1.051033 -1.815217,1.666802 -2.748973,2.869484 -0.811934,1.045775 -1.23068,1.82153 -1.759392,3.016256 -0.212375,0.479898 -0.415709,0.965548 -0.575506,1.46542 -0.137935,0.431482 -0.210346,0.881234 -0.315519,1.32185 -0.149825,0.892436 -0.272075,1.419438 -0.301096,2.308212 -0.0093,0.28356 0.01548,0.567269 0.03027,0.850593 0.03069,0.587581 0.09698,1.169807 0.172931,1.752853 0,0 3.519443,1.685961 3.519443,1.685961 z"
     transform="matrix(-0.60335912,0,0,-0.62739128,50.437395,94.272602)" /><path
     style="display:inline;fill:#3cff8f;fill-opacity:1;stroke-width:0.264583;filter:url(#filter13591)"
     id="path919-0"
     d="m 3.689236,21.334473 c 1.967331,-0.434951 4.002978,-0.45675 6.008196,-0.488337 4.090614,0.106093 8.131164,0.908454 12.055636,2.034149 0.800454,0.229602 1.591341,0.491323 2.387011,0.736984 3.134446,0.996374 6.100108,2.431759 8.961924,4.038547 0.136552,0.07667 -0.554304,-0.287133 -0.426995,-0.195937 0.600691,0.430287 1.235101,0.811442 1.852654,1.217162 2.297309,1.61124 4.478287,3.426148 6.289314,5.580649 0.297182,0.353544 0.570033,0.726842 0.85505,1.090263 1.137195,1.583551 2.126185,3.272824 3.017399,5.00572 0.262012,0.50946 0.525439,1.01873 0.76227,1.540371 0.267604,0.589417 0.500194,1.194112 0.750291,1.791167 1.006713,2.727093 1.800814,5.541118 2.347327,8.397394 0.328019,1.714342 0.377872,2.339912 0.58648,4.034858 0.237445,2.283342 0.346075,4.576969 0.344421,6.871924 -0.0081,0.177606 -0.01625,0.355213 -0.02437,0.532817 0,0 3.364429,1.713105 3.364429,1.713105 v 0 c -0.0091,-0.190839 -0.01826,-0.381675 -0.02738,-0.572511 -0.164155,-2.386646 -0.443571,-4.763192 -0.784111,-7.13091 -0.322709,-2.102703 -0.642886,-4.208767 -1.117554,-6.284157 -0.314367,-1.37452 -0.732853,-2.82787 -1.137358,-4.17807 -0.203433,-0.679039 -0.41938,-1.354266 -0.629071,-2.031398 -0.22049,-0.591886 -0.419404,-1.192264 -0.661471,-1.77566 -0.418795,-1.009324 -0.928623,-1.963381 -1.4392,-2.927247 -0.663789,-1.253101 -1.346307,-2.498538 -2.199728,-3.636124 -0.290743,-0.374198 -0.568515,-0.758843 -0.872233,-1.12259 -1.874791,-2.245345 -4.16337,-4.111749 -6.553452,-5.778877 -3.01813,-1.972261 -2.245684,-1.512593 -6.592463,-3.99034 -2.866917,-1.634199 -5.879239,-3.037917 -9.033734,-4.019219 -2.061976,-0.614676 -2.743259,-0.847689 -4.857747,-1.354228 -3.236135,-0.775237 -6.530645,-1.29969 -9.853577,-1.503071 -0.624242,-0.009 -1.24842,-0.02528 -1.872722,-0.02708 -1.576618,-0.0045 -3.152411,0.05147 -4.726168,0.14027 0,0 3.226921,2.290372 3.226921,2.290372 z"
     transform="matrix(-0.60335912,0,0,-0.62739128,67.9474,70.974319)" /><path
     style="display:inline;fill:#f22e9b;fill-opacity:1;stroke-width:0.264583;filter:url(#filter13591)"
     id="path921-3"
     d="m 17.261089,80.734037 c 1.141973,0.09619 -0.01185,0.0042 1.69057,0.111615 0.508129,0.03205 1.015224,0.08217 1.52393,0.103206 0.680879,0.02815 1.362455,0.03994 2.043903,0.04431 0.793942,0.0051 1.588911,0.02482 2.381822,-0.01595 0.897122,-0.04613 1.789207,-0.162999 2.68381,-0.244498 2.198326,-0.313026 3.188468,-0.401717 5.335391,-0.909915 0.796443,-0.188526 1.593661,-0.385209 2.366413,-0.654873 0.766252,-0.267395 1.512664,-0.593822 2.240527,-0.95279 2.02272,-0.997566 2.261033,-1.31352 4.070708,-2.679333 1.833328,-1.533574 3.618412,-3.138337 5.09711,-5.027519 0.884395,-1.129905 2.337483,-3.324795 3.054723,-4.543184 0.5061,-0.859729 0.955733,-1.751475 1.433599,-2.62721 1.279376,-2.470834 2.474649,-4.988925 3.494186,-7.579168 0.304421,-0.773419 0.602358,-1.550163 0.863112,-2.339372 0.536485,-1.623745 0.933566,-3.271696 1.360926,-4.925473 0.537038,-2.152458 0.922044,-4.34023 1.20352,-6.539919 0.07961,-0.622177 0.155869,-1.245162 0.207219,-1.870306 0.09104,-1.108307 0.123727,-2.584544 0.158716,-3.701312 0.07994,-2.305901 -0.04876,-4.610058 -0.15797,-6.912381 -0.02593,-0.632893 -0.01593,-0.339841 -0.03168,-0.879096 0,0 -3.441719,-1.712173 -3.441719,-1.712173 v 0 c 0.09141,0.573838 0.04351,0.2629 0.141986,0.933079 0.326323,2.347591 0.600135,4.707233 0.583268,7.081925 -0.0072,0.603885 -0.0021,1.208037 -0.02151,1.811649 -0.112215,3.48565 -0.508187,6.965517 -1.257439,10.372797 -0.203515,0.81544 -0.385641,1.636521 -0.610539,2.446323 -0.441803,1.590817 -1.002148,3.247769 -1.569044,4.798599 -0.953373,2.608084 -2.029924,5.171622 -3.339286,7.623528 -1.20207,2.077022 -1.647686,2.969356 -3.033708,4.897418 -1.899654,2.642567 -4.16148,5.014052 -6.663712,7.090051 -1.670919,1.206578 -2.208909,1.706794 -4.051966,2.606263 -3.055192,1.491029 -6.430128,2.137819 -9.782404,2.511204 -0.923692,0.05047 -1.846132,0.136268 -2.77108,0.151407 -1.560356,0.02553 -3.132382,-0.09625 -4.683461,-0.251343 -0.951613,-0.09515 -1.990808,-0.232539 -2.936069,-0.418917 -0.235558,-0.04644 -0.465999,-0.115869 -0.698999,-0.173802 0,0 3.115141,2.375168 3.115141,2.375168 z"
     transform="matrix(-0.56485278,-0.21209328,0.22054109,-0.58735121,61.041791,96.705322)" /><path
     style="display:inline;fill:#f22e9b;fill-opacity:1;stroke-width:0.264583;filter:url(#filter13591-3)"
     id="path921-3-4"
     d="m 17.261089,80.734037 c 1.141973,0.09619 -0.01185,0.0042 1.69057,0.111615 0.508129,0.03205 1.015224,0.08217 1.52393,0.103206 0.680879,0.02815 1.362455,0.03994 2.043903,0.04431 0.793942,0.0051 1.588911,0.02482 2.381822,-0.01595 0.897122,-0.04613 1.789207,-0.162999 2.68381,-0.244498 2.198326,-0.313026 3.188468,-0.401717 5.335391,-0.909915 0.796443,-0.188526 1.593661,-0.385209 2.366413,-0.654873 0.766252,-0.267395 1.512664,-0.593822 2.240527,-0.95279 2.02272,-0.997566 2.261033,-1.31352 4.070708,-2.679333 1.833328,-1.533574 3.618412,-3.138337 5.09711,-5.027519 0.884395,-1.129905 2.337483,-3.324795 3.054723,-4.543184 0.5061,-0.859729 0.955733,-1.751475 1.433599,-2.62721 1.279376,-2.470834 2.474649,-4.988925 3.494186,-7.579168 0.304421,-0.773419 0.602358,-1.550163 0.863112,-2.339372 0.536485,-1.623745 0.933566,-3.271696 1.360926,-4.925473 0.537038,-2.152458 0.922044,-4.34023 1.20352,-6.539919 0.07961,-0.622177 0.155869,-1.245162 0.207219,-1.870306 0.09104,-1.108307 0.123727,-2.584544 0.158716,-3.701312 0.07994,-2.305901 -0.04876,-4.610058 -0.15797,-6.912381 -0.02593,-0.632893 -0.01593,-0.339841 -0.03168,-0.879096 0,0 -3.441719,-1.712173 -3.441719,-1.712173 v 0 c 0.09141,0.573838 0.04351,0.2629 0.141986,0.933079 0.326323,2.347591 0.600135,4.707233 0.583268,7.081925 -0.0072,0.603885 -0.0021,1.208037 -0.02151,1.811649 -0.112215,3.48565 -0.508187,6.965517 -1.257439,10.372797 -0.203515,0.81544 -0.385641,1.636521 -0.610539,2.446323 -0.441803,1.590817 -1.002148,3.247769 -1.569044,4.798599 -0.953373,2.608084 -2.029924,5.171622 -3.339286,7.623528 -1.20207,2.077022 -1.647686,2.969356 -3.033708,4.897418 -1.899654,2.642567 -4.16148,5.014052 -6.663712,7.090051 -1.670919,1.206578 -2.208909,1.706794 -4.051966,2.606263 -3.055192,1.491029 -6.430128,2.137819 -9.782404,2.511204 -0.923692,0.05047 -1.846132,0.136268 -2.77108,0.151407 -1.560356,0.02553 -3.132382,-0.09625 -4.683461,-0.251343 -0.951613,-0.09515 -1.990808,-0.232539 -2.936069,-0.418917 -0.235558,-0.04644 -0.465999,-0.115869 -0.698999,-0.173802 0,0 3.115141,2.375168 3.115141,2.375168 z"
     transform="matrix(-0.79264151,0,0,-0.72265132,78.284149,94.67642)" /></svg>
